<?xml version="1.0" encoding="UTF-8" standalone="no"?>
<!-- Created with Inkscape (http://www.inkscape.org/) -->

<svg
   width="512"
   height="400"
   viewBox="0 0 135.46667 105.83362"
   version="1.1"
   id="svg1"
   xml:space="preserve"
   inkscape:version="1.4 (e7c3feb100, 2024-10-09)"
   sodipodi:docname="donate.svg"
   xmlns:inkscape="http://www.inkscape.org/namespaces/inkscape"
   xmlns:sodipodi="http://sodipodi.sourceforge.net/DTD/sodipodi-0.dtd"
   xmlns:xlink="http://www.w3.org/1999/xlink"
   xmlns="http://www.w3.org/2000/svg"
   xmlns:svg="http://www.w3.org/2000/svg"><sodipodi:namedview
     id="namedview1"
     pagecolor="#505050"
     bordercolor="#eeeeee"
     borderopacity="1"
     inkscape:showpageshadow="0"
     inkscape:pageopacity="0"
     inkscape:pagecheckerboard="0"
     inkscape:deskcolor="#505050"
     inkscape:document-units="mm"
     inkscape:zoom="2.2225"
     inkscape:cx="288.18898"
     inkscape:cy="240.71991"
     inkscape:window-width="1920"
     inkscape:window-height="1035"
     inkscape:window-x="0"
     inkscape:window-y="22"
     inkscape:window-maximized="1"
     inkscape:current-layer="layer1" /><defs
     id="defs1"><linearGradient
       id="linearGradient5"
       inkscape:collect="always"><stop
         style="stop-color:#004868;stop-opacity:1;"
         offset="0"
         id="stop4" /><stop
         style="stop-color:#03080d;stop-opacity:0;"
         offset="1"
         id="stop5" /></linearGradient><radialGradient
       inkscape:collect="always"
       xlink:href="#linearGradient5"
       id="radialGradient3-9"
       cx="84.332039"
       cy="20.911997"
       fx="84.332039"
       fy="20.911997"
       r="22.728432"
       gradientUnits="userSpaceOnUse"
       gradientTransform="matrix(6.7602488,0,0,6.7602488,-570.10582,-35.536739)" /></defs><g
     inkscape:label="Layer 1"
     inkscape:groupmode="layer"
     id="layer1"><rect
       style="fill:#03080d;fill-opacity:1;stroke-width:19.0841;stroke-linejoin:round"
       id="rect1"
       width="135.46704"
       height="105.83363"
       x="0"
       y="0" /><circle
       style="fill:url(#radialGradient3-9);stroke-width:133.388;stroke-linejoin:round"
       id="path2-4"
       cx="-0.0001818"
       cy="105.83362"
       r="153.64984" /><path
       d="m 34.185167,89.156982 v -5.645123 h 1.297994 q 0.199692,0 0.391703,0.0384 0.199691,0.03072 0.376341,0.122887 0.17665,0.08449 0.314898,0.230413 0.145929,0.138248 0.238094,0.322579 0.09217,0.17665 0.122887,0.376342 0.0384,0.192011 0.0384,0.391702 0,0.184331 -0.0384,0.376342 -0.03072,0.18433 -0.122887,0.345619 -0.09217,0.16129 -0.230413,0.291857 -0.138248,0.130568 -0.307218,0.207372 0.199692,0.0768 0.376342,0.207372 0.18433,0.130567 0.299537,0.314898 0.122887,0.18433 0.16897,0.399383 0.05376,0.215052 0.05376,0.437785 0,0.215052 -0.04608,0.437785 -0.0384,0.215052 -0.145928,0.407063 -0.107527,0.192011 -0.276496,0.33794 -0.161289,0.145928 -0.360981,0.238093 -0.199691,0.09216 -0.422424,0.130568 -0.215052,0.03072 -0.430105,0.03072 z m 0.599074,-3.195063 h 0.69892 q 0.184331,0 0.360981,-0.06144 0.184331,-0.06144 0.307218,-0.199692 0.122887,-0.145928 0.168969,-0.322578 0.04608,-0.184331 0.04608,-0.376342 0,-0.18433 -0.04608,-0.36098 -0.04608,-0.184331 -0.168969,-0.322579 -0.122887,-0.145928 -0.307218,-0.207372 -0.17665,-0.06144 -0.360981,-0.06144 h -0.69892 z m 0,2.657433 h 0.69892 q 0.145929,0 0.284177,-0.02304 0.145928,-0.02304 0.268815,-0.08449 0.130567,-0.06144 0.238094,-0.161289 0.107526,-0.107526 0.17665,-0.230413 0.06912,-0.130567 0.09217,-0.268815 0.02304,-0.145929 0.02304,-0.291857 0,-0.138248 -0.02304,-0.284176 -0.02304,-0.145929 -0.09217,-0.268816 -0.06912,-0.130567 -0.17665,-0.230413 -0.09985,-0.09985 -0.230414,-0.161289 -0.130567,-0.06912 -0.276495,-0.09216 -0.138248,-0.02304 -0.284177,-0.02304 h -0.69892 z m 4.370171,0.53763 V 84.04949 h -1.175108 v -0.537631 h 2.949289 v 0.537631 h -1.175107 v 5.107492 z m 4.116715,0.06144 q -0.199691,0 -0.407063,-0.0384 -0.199691,-0.0384 -0.376341,-0.138248 -0.176651,-0.09985 -0.314899,-0.253455 -0.138247,-0.153608 -0.222732,-0.337939 -0.08449,-0.184331 -0.115207,-0.384022 -0.03072,-0.207372 -0.03072,-0.407063 v -2.649752 q 0,-0.199692 0.03072,-0.399383 0.03072,-0.207372 0.115207,-0.391702 0.08449,-0.184331 0.222732,-0.33794 0.138248,-0.153609 0.314899,-0.253454 0.17665,-0.09985 0.376341,-0.138248 0.207372,-0.0384 0.407063,-0.0384 0.192011,0 0.376342,0.03072 0.192011,0.03072 0.360981,0.115207 0.17665,0.08449 0.314898,0.222733 0.145928,0.130567 0.238093,0.299537 0.09217,0.161289 0.130568,0.3533 0.04608,0.184331 0.04608,0.376342 v 0.04608 h -0.599074 v -0.03072 q 0,-0.17665 -0.05376,-0.345619 -0.05376,-0.16897 -0.17665,-0.291857 -0.122887,-0.130568 -0.291857,-0.184331 -0.168969,-0.05376 -0.34562,-0.05376 -0.192011,0 -0.376341,0.07681 -0.17665,0.0768 -0.291857,0.230413 -0.115206,0.145928 -0.161289,0.337939 -0.0384,0.184331 -0.0384,0.376342 v 2.649752 q 0,0.192011 0.0384,0.384022 0.04608,0.18433 0.161289,0.337939 0.115207,0.145928 0.291857,0.222733 0.18433,0.0768 0.376341,0.0768 0.176651,0 0.34562,-0.05376 0.16897,-0.05376 0.291857,-0.17665 0.122887,-0.130568 0.17665,-0.299537 0.05376,-0.16897 0.05376,-0.34562 v -0.03072 h 0.599074 v 0.04608 q 0,0.192011 -0.04608,0.384022 -0.0384,0.18433 -0.130568,0.3533 -0.09217,0.161289 -0.238093,0.299537 -0.138248,0.130568 -0.314898,0.215053 -0.16897,0.08448 -0.360981,0.115206 -0.184331,0.03072 -0.376342,0.03072 z"
       id="text1"
       style="font-size:7.68044px;font-family:'Iosevka Fixed';-inkscape-font-specification:'Iosevka Fixed';fill:#ffffff;stroke-width:13.4353;stroke-linejoin:round"
       aria-label="BTC" /><path
       d="m 84.33204,89.126266 v -5.645123 h 0.721961 l 0.829488,3.095217 0.829487,-3.095217 h 0.721962 v 5.645123 h -0.599075 v -1.129024 q 0,-0.491548 0.0077,-0.983097 0.0077,-0.499228 0.02304,-0.990776 l 0.01536,-0.568353 q 0.0077,-0.245774 0.01536,-0.491548 0.0077,-0.245774 0.01536,-0.499229 l -0.798766,2.96465 h -0.460826 l -0.798766,-2.96465 q 0.0077,0.253455 0.01536,0.499229 0.0077,0.245774 0.01536,0.491548 l 0.01536,0.568353 q 0.01536,0.491548 0.02304,0.990776 0.0077,0.491549 0.0077,0.983097 v 1.129024 z m 5.391669,0.06144 q -0.207372,0 -0.414744,-0.04608 -0.199691,-0.0384 -0.384022,-0.138248 -0.17665,-0.09985 -0.322578,-0.253454 -0.138248,-0.161289 -0.222733,-0.34562 -0.08449,-0.192011 -0.115207,-0.399383 -0.03072,-0.207372 -0.03072,-0.414744 v -0.921652 q 0,-0.207372 0.03072,-0.414744 0.03072,-0.207372 0.115207,-0.391702 0.08449,-0.192011 0.222733,-0.34562 0.145928,-0.16129 0.322578,-0.261135 0.184331,-0.09985 0.384022,-0.138248 0.207372,-0.04608 0.414744,-0.04608 0.207372,0 0.407063,0.04608 0.207372,0.0384 0.384022,0.138248 0.184331,0.09985 0.322579,0.261135 0.145928,0.153609 0.230413,0.34562 0.08449,0.18433 0.115206,0.391702 0.03072,0.207372 0.03072,0.414744 v 0.921652 q 0,0.207372 -0.03072,0.414744 -0.03072,0.207372 -0.115206,0.399383 -0.08449,0.184331 -0.230413,0.34562 -0.138248,0.153609 -0.322579,0.253454 -0.17665,0.09985 -0.384022,0.138248 -0.199691,0.04608 -0.407063,0.04608 z m 0,-0.537631 q 0.130567,0 0.261135,-0.03072 0.130567,-0.03072 0.238093,-0.09984 0.107527,-0.07681 0.184331,-0.184331 0.08449,-0.107526 0.130568,-0.230413 0.04608,-0.122887 0.06144,-0.253455 0.01536,-0.130567 0.01536,-0.261135 v -0.921652 q 0,-0.130568 -0.01536,-0.261135 -0.01536,-0.130568 -0.06144,-0.253455 -0.04608,-0.122887 -0.130568,-0.230413 -0.0768,-0.107526 -0.184331,-0.17665 -0.107526,-0.0768 -0.238093,-0.107526 -0.130568,-0.03072 -0.261135,-0.03072 -0.130568,0 -0.261135,0.03072 -0.130568,0.03072 -0.238094,0.107526 -0.107526,0.06912 -0.192011,0.17665 -0.0768,0.107526 -0.122887,0.230413 -0.04608,0.122887 -0.06144,0.253455 -0.01536,0.130567 -0.01536,0.261135 v 0.921652 q 0,0.130568 0.01536,0.261135 0.01536,0.130568 0.06144,0.253455 0.04608,0.122887 0.122887,0.230413 0.08449,0.107526 0.192011,0.184331 0.107526,0.06912 0.238094,0.09984 0.130567,0.03072 0.261135,0.03072 z m 2.411658,0.476187 v -3.993828 h 0.599074 v 0.69892 q 0.06144,-0.161289 0.16129,-0.307218 0.09985,-0.153609 0.238093,-0.253454 0.145929,-0.107527 0.314898,-0.153609 0.17665,-0.04608 0.34562,-0.04608 0.192011,0 0.376342,0.05376 0.18433,0.05376 0.322578,0.17665 0.145928,0.115207 0.245774,0.284177 0.09985,0.161289 0.153609,0.345619 0.06144,0.176651 0.0768,0.368662 0.02304,0.18433 0.02304,0.368661 v 2.45774 h -0.599075 v -2.45774 q 0,-0.130568 -0.01536,-0.253455 -0.01536,-0.130567 -0.05376,-0.245774 -0.0384,-0.122887 -0.115206,-0.230413 -0.06912,-0.107526 -0.16897,-0.184331 -0.09985,-0.0768 -0.222733,-0.107526 -0.122887,-0.0384 -0.253454,-0.0384 -0.130568,0 -0.253455,0.0384 -0.122887,0.03072 -0.222732,0.107526 -0.09985,0.0768 -0.176651,0.184331 -0.06912,0.107526 -0.107526,0.230413 -0.0384,0.115207 -0.05376,0.245774 -0.01536,0.122887 -0.01536,0.253455 v 2.45774 z m 5.268782,0.06144 q -0.207372,0 -0.414743,-0.04608 -0.199692,-0.0384 -0.384022,-0.138248 -0.176651,-0.09985 -0.322579,-0.253454 -0.138248,-0.161289 -0.222733,-0.34562 -0.08449,-0.192011 -0.115206,-0.399383 -0.03072,-0.207372 -0.03072,-0.414744 v -0.921652 q 0,-0.207372 0.03072,-0.414744 0.03072,-0.207372 0.115206,-0.391702 0.08449,-0.192011 0.222733,-0.34562 0.145928,-0.16129 0.322579,-0.261135 0.18433,-0.09985 0.384022,-0.138248 0.207371,-0.04608 0.414743,-0.04608 0.207372,0 0.407064,0.04608 0.207371,0.0384 0.384022,0.138248 0.18433,0.09985 0.322578,0.261135 0.145928,0.153609 0.230413,0.34562 0.08449,0.18433 0.115207,0.391702 0.03072,0.207372 0.03072,0.414744 v 0.729641 h -2.380937 v 0.192011 q 0,0.130568 0.01536,0.261135 0.01536,0.130568 0.06144,0.253455 0.04608,0.122887 0.122887,0.230413 0.08449,0.107526 0.192011,0.184331 0.107526,0.06912 0.238093,0.09984 0.130568,0.03072 0.261135,0.03072 0.153609,0 0.299537,-0.02304 0.153609,-0.03072 0.284177,-0.107526 0.130567,-0.08449 0.207372,-0.215053 0.08448,-0.138248 0.08448,-0.291856 h 0.599075 q 0,0.17665 -0.06144,0.345619 -0.05376,0.16897 -0.161289,0.314899 -0.09985,0.138247 -0.245774,0.245774 -0.145928,0.09984 -0.314898,0.161289 -0.161289,0.06144 -0.337939,0.08449 -0.176651,0.02304 -0.353301,0.02304 z m 0.890931,-2.327173 v -0.192011 q 0,-0.130568 -0.01536,-0.261135 -0.01536,-0.130568 -0.06144,-0.253455 -0.04608,-0.122887 -0.130568,-0.230413 -0.0768,-0.107526 -0.18433,-0.17665 -0.107526,-0.0768 -0.238094,-0.107526 -0.130567,-0.03072 -0.261135,-0.03072 -0.130567,0 -0.261135,0.03072 -0.130567,0.03072 -0.238093,0.107526 -0.107526,0.06912 -0.192011,0.17665 -0.0768,0.107526 -0.122887,0.230413 -0.04608,0.122887 -0.06144,0.253455 -0.01536,0.130567 -0.01536,0.261135 v 0.192011 z m 1.98155,2.265729 v -3.993828 h 0.59908 v 0.829487 q 0.0538,-0.168969 0.13057,-0.330259 0.0845,-0.161289 0.20737,-0.291856 0.12288,-0.130568 0.29185,-0.199692 0.16897,-0.06912 0.34562,-0.06912 0.14593,0 0.28418,0.0384 0.14593,0.03072 0.26113,0.115207 0.11521,0.0768 0.19202,0.199691 0.0768,0.122887 0.12288,0.261135 0.0461,0.130568 0.0614,0.276496 0.0154,0.138248 0.0154,0.284176 h -0.59908 q 0,-0.115206 -0.023,-0.222732 -0.0154,-0.115207 -0.0768,-0.215053 -0.0538,-0.09985 -0.16129,-0.145928 -0.0999,-0.05376 -0.21505,-0.05376 -0.15361,0 -0.29954,0.06912 -0.13825,0.06144 -0.2381,0.17665 -0.0922,0.115207 -0.1536,0.261135 -0.0615,0.138248 -0.0922,0.291857 -0.0307,0.145928 -0.0461,0.299537 -0.008,0.153609 -0.008,0.299537 v 2.119801 z m 4.80796,0.06144 q -0.20737,0 -0.41475,-0.04608 -0.19969,-0.0384 -0.38402,-0.138248 -0.17665,-0.09985 -0.32258,-0.253454 -0.13824,-0.161289 -0.22273,-0.34562 -0.0845,-0.192011 -0.11521,-0.399383 -0.0307,-0.207372 -0.0307,-0.414744 v -0.921652 q 0,-0.207372 0.0307,-0.414744 0.0307,-0.207372 0.11521,-0.391702 0.0845,-0.192011 0.22273,-0.34562 0.14593,-0.16129 0.32258,-0.261135 0.18433,-0.09985 0.38402,-0.138248 0.20738,-0.04608 0.41475,-0.04608 0.20737,0 0.40706,0.04608 0.20737,0.0384 0.38402,0.138248 0.18433,0.09985 0.32258,0.261135 0.14593,0.153609 0.23042,0.34562 0.0845,0.18433 0.1152,0.391702 0.0307,0.207372 0.0307,0.414744 v 0.921652 q 0,0.207372 -0.0307,0.414744 -0.0307,0.207372 -0.1152,0.399383 -0.0845,0.184331 -0.23042,0.34562 -0.13825,0.153609 -0.32258,0.253454 -0.17665,0.09985 -0.38402,0.138248 -0.19969,0.04608 -0.40706,0.04608 z m 0,-0.537631 q 0.13057,0 0.26113,-0.03072 0.13057,-0.03072 0.2381,-0.09984 0.10752,-0.07681 0.18433,-0.184331 0.0845,-0.107526 0.13056,-0.230413 0.0461,-0.122887 0.0615,-0.253455 0.0154,-0.130567 0.0154,-0.261135 v -0.921652 q 0,-0.130568 -0.0154,-0.261135 -0.0154,-0.130568 -0.0615,-0.253455 -0.0461,-0.122887 -0.13056,-0.230413 -0.0768,-0.107526 -0.18433,-0.17665 -0.10753,-0.0768 -0.2381,-0.107526 -0.13056,-0.03072 -0.26113,-0.03072 -0.13057,0 -0.26114,0.03072 -0.13056,0.03072 -0.23809,0.107526 -0.10753,0.06912 -0.19201,0.17665 -0.0768,0.107526 -0.12289,0.230413 -0.0461,0.122887 -0.0614,0.253455 -0.0154,0.130567 -0.0154,0.261135 v 0.921652 q 0,0.130568 0.0154,0.261135 0.0154,0.130568 0.0614,0.253455 0.0461,0.122887 0.12289,0.230413 0.0845,0.107526 0.19201,0.184331 0.10753,0.06912 0.23809,0.09984 0.13057,0.03072 0.26114,0.03072 z"
       id="text1-2"
       style="font-size:7.68044px;font-family:'Iosevka Fixed';-inkscape-font-specification:'Iosevka Fixed';fill:#ffffff;stroke-width:13.4353;stroke-linejoin:round"
       aria-label="Monero" /><path
       d="m 39.527858,18.930395 q -0.192011,0 -0.384022,-0.03072 -0.192011,-0.03072 -0.368661,-0.107527 -0.168969,-0.08448 -0.314898,-0.215052 -0.145928,-0.130567 -0.245774,-0.291857 -0.09217,-0.168969 -0.138248,-0.36098 -0.04608,-0.192011 -0.04608,-0.384022 v -0.05376 h 0.599074 v 0.0384 q 0,0.17665 0.06144,0.34562 0.06144,0.168969 0.18433,0.291856 0.130568,0.122887 0.299537,0.17665 0.17665,0.05376 0.3533,0.05376 0.176651,0 0.353301,-0.05376 0.17665,-0.05376 0.299537,-0.18433 0.130567,-0.130568 0.192011,-0.299537 0.06144,-0.17665 0.06144,-0.353301 0,-0.199691 -0.08448,-0.384022 -0.07681,-0.192011 -0.215053,-0.330258 -0.130567,-0.145929 -0.307217,-0.245775 -0.16897,-0.09985 -0.34562,-0.192011 -0.17665,-0.09217 -0.3533,-0.18433 -0.16897,-0.09985 -0.322579,-0.222733 -0.153609,-0.122887 -0.284176,-0.268815 -0.130568,-0.153609 -0.230413,-0.322579 -0.09217,-0.17665 -0.138248,-0.368661 -0.04608,-0.199691 -0.04608,-0.399383 0,-0.18433 0.0384,-0.368661 0.04608,-0.192011 0.130568,-0.36098 0.09217,-0.16897 0.222733,-0.307218 0.138247,-0.138248 0.307217,-0.222733 0.16897,-0.09216 0.3533,-0.122887 0.192011,-0.0384 0.384022,-0.0384 0.192011,0 0.376342,0.03072 0.18433,0.03072 0.3533,0.115206 0.16897,0.08449 0.307218,0.222733 0.138248,0.130568 0.222733,0.299537 0.09216,0.161289 0.130567,0.34562 0.04608,0.184331 0.04608,0.376342 v 0.05376 h -0.599075 v -0.0384 q 0,-0.168969 -0.05376,-0.330258 -0.05376,-0.16897 -0.168969,-0.291857 -0.115207,-0.130568 -0.284177,-0.184331 -0.161289,-0.06144 -0.330259,-0.06144 -0.168969,0 -0.337939,0.06144 -0.16897,0.06144 -0.284176,0.192011 -0.115207,0.122887 -0.16897,0.291857 -0.05376,0.16897 -0.05376,0.34562 0,0.199691 0.0768,0.384022 0.07681,0.18433 0.215053,0.330259 0.138248,0.145928 0.307217,0.245774 0.16897,0.09985 0.34562,0.192011 0.17665,0.08449 0.34562,0.18433 0.17665,0.09985 0.330259,0.222733 0.161289,0.122887 0.291857,0.276496 0.130567,0.145928 0.222732,0.322578 0.09217,0.16897 0.138248,0.360981 0.05376,0.192011 0.05376,0.391702 0,0.199692 -0.04608,0.391703 -0.04608,0.18433 -0.138248,0.360981 -0.09217,0.168969 -0.238094,0.307217 -0.145928,0.130568 -0.322578,0.215053 -0.16897,0.08448 -0.368662,0.115206 -0.192011,0.0384 -0.384022,0.0384 z m 3.617488,0 q -0.192011,0 -0.376342,-0.05376 -0.18433,-0.05376 -0.330259,-0.168969 -0.138248,-0.122887 -0.238093,-0.284177 -0.09985,-0.168969 -0.16129,-0.34562 -0.05376,-0.18433 -0.0768,-0.368661 -0.01536,-0.192011 -0.01536,-0.376341 v -2.457741 h 0.599074 v 2.457741 q 0,0.130567 0.01536,0.261135 0.01536,0.122887 0.05376,0.245774 0.0384,0.115206 0.107526,0.222733 0.07681,0.107526 0.176651,0.18433 0.09985,0.07681 0.222732,0.115207 0.122887,0.03072 0.253455,0.03072 0.130567,0 0.253454,-0.03072 0.122887,-0.0384 0.222733,-0.115207 0.09985,-0.0768 0.16897,-0.18433 0.0768,-0.107527 0.115206,-0.222733 0.0384,-0.122887 0.05376,-0.245774 0.01536,-0.130568 0.01536,-0.261135 v -2.457741 h 0.599075 v 3.993829 h -0.599075 v -0.69892 q -0.06144,0.161289 -0.161289,0.314898 -0.09985,0.145928 -0.245774,0.253454 -0.138248,0.09985 -0.314898,0.145929 -0.16897,0.04608 -0.337939,0.04608 z m 2.642071,1.589851 v -5.645123 h 0.599074 v 0.7066 q 0.06144,-0.168969 0.16129,-0.314898 0.107526,-0.145928 0.253454,-0.253454 0.145928,-0.107526 0.322579,-0.153609 0.17665,-0.04608 0.3533,-0.04608 0.192011,0 0.376341,0.05376 0.192011,0.05376 0.33794,0.168969 0.145928,0.115207 0.245774,0.284177 0.107526,0.161289 0.161289,0.345619 0.06144,0.17665 0.08449,0.368661 0.02304,0.184331 0.02304,0.376342 v 0.921653 q 0,0.192011 -0.02304,0.384022 -0.02304,0.18433 -0.08449,0.368661 -0.05376,0.17665 -0.161289,0.34562 -0.09985,0.161289 -0.245774,0.276496 -0.145929,0.115206 -0.33794,0.168969 -0.18433,0.05376 -0.376341,0.05376 -0.17665,0 -0.3533,-0.04608 -0.176651,-0.04608 -0.322579,-0.153609 -0.145928,-0.107526 -0.253454,-0.253455 -0.09985,-0.145928 -0.16129,-0.314898 v 2.357895 z m 1.459284,-2.127481 q 0.130567,0 0.253454,-0.03072 0.130568,-0.03072 0.230413,-0.107526 0.107526,-0.07681 0.184331,-0.184331 0.0768,-0.107526 0.115206,-0.230413 0.04608,-0.122887 0.06144,-0.245774 0.01536,-0.130568 0.01536,-0.261135 v -0.921653 q 0,-0.130567 -0.01536,-0.253455 -0.01536,-0.130567 -0.06144,-0.253454 -0.0384,-0.122887 -0.115206,-0.230413 -0.07681,-0.107526 -0.184331,-0.184331 -0.09984,-0.0768 -0.230413,-0.107526 -0.122887,-0.03072 -0.253454,-0.03072 -0.130568,0 -0.261135,0.03072 -0.122887,0.03072 -0.230414,0.107526 -0.09985,0.07681 -0.17665,0.184331 -0.0768,0.107526 -0.122887,0.230413 -0.0384,0.122887 -0.05376,0.253454 -0.01536,0.122888 -0.01536,0.253455 v 0.921653 q 0,0.130567 0.01536,0.261135 0.01536,0.122887 0.05376,0.245774 0.04608,0.122887 0.122887,0.230413 0.07681,0.107526 0.17665,0.184331 0.107527,0.0768 0.230414,0.107526 0.130567,0.03072 0.261135,0.03072 z m 2.380936,2.127481 v -5.645123 h 0.599075 v 0.7066 q 0.06144,-0.168969 0.161289,-0.314898 0.107526,-0.145928 0.253455,-0.253454 0.145928,-0.107526 0.322578,-0.153609 0.17665,-0.04608 0.3533,-0.04608 0.192011,0 0.376342,0.05376 0.192011,0.05376 0.337939,0.168969 0.145929,0.115207 0.245774,0.284177 0.107526,0.161289 0.16129,0.345619 0.06144,0.17665 0.08448,0.368661 0.02304,0.184331 0.02304,0.376342 v 0.921653 q 0,0.192011 -0.02304,0.384022 -0.02304,0.18433 -0.08448,0.368661 -0.05376,0.17665 -0.16129,0.34562 -0.09985,0.161289 -0.245774,0.276496 -0.145928,0.115206 -0.337939,0.168969 -0.184331,0.05376 -0.376342,0.05376 -0.17665,0 -0.3533,-0.04608 -0.17665,-0.04608 -0.322578,-0.153609 -0.145929,-0.107526 -0.253455,-0.253455 -0.09985,-0.145928 -0.161289,-0.314898 v 2.357895 z m 1.459284,-2.127481 q 0.130568,0 0.253455,-0.03072 0.130567,-0.03072 0.230413,-0.107526 0.107526,-0.07681 0.18433,-0.184331 0.07681,-0.107526 0.115207,-0.230413 0.04608,-0.122887 0.06144,-0.245774 0.01536,-0.130568 0.01536,-0.261135 v -0.921653 q 0,-0.130567 -0.01536,-0.253455 -0.01536,-0.130567 -0.06144,-0.253454 -0.0384,-0.122887 -0.115207,-0.230413 -0.0768,-0.107526 -0.18433,-0.184331 -0.09985,-0.0768 -0.230413,-0.107526 -0.122887,-0.03072 -0.253455,-0.03072 -0.130567,0 -0.261135,0.03072 -0.122887,0.03072 -0.230413,0.107526 -0.09985,0.07681 -0.17665,0.184331 -0.07681,0.107526 -0.122887,0.230413 -0.0384,0.122887 -0.05376,0.253454 -0.01536,0.122888 -0.01536,0.253455 v 0.921653 q 0,0.130567 0.01536,0.261135 0.01536,0.122887 0.05376,0.245774 0.04608,0.122887 0.122887,0.230413 0.0768,0.107526 0.17665,0.184331 0.107526,0.0768 0.230413,0.107526 0.130568,0.03072 0.261135,0.03072 z m 3.809498,0.53763 q -0.207372,0 -0.414744,-0.04608 -0.199691,-0.0384 -0.384022,-0.138248 -0.17665,-0.09985 -0.322578,-0.253455 -0.138248,-0.161289 -0.222733,-0.34562 -0.08449,-0.192011 -0.115207,-0.399382 -0.03072,-0.207372 -0.03072,-0.414744 v -0.921653 q 0,-0.207372 0.03072,-0.414744 0.03072,-0.207372 0.115207,-0.391702 0.08448,-0.192011 0.222733,-0.34562 0.145928,-0.161289 0.322578,-0.261135 0.184331,-0.09985 0.384022,-0.138248 0.207372,-0.04608 0.414744,-0.04608 0.207372,0 0.407063,0.04608 0.207372,0.0384 0.384022,0.138248 0.184331,0.09985 0.322579,0.261135 0.145928,0.153609 0.230413,0.34562 0.08449,0.18433 0.115206,0.391702 0.03072,0.207372 0.03072,0.414744 v 0.921653 q 0,0.207372 -0.03072,0.414744 -0.03072,0.207371 -0.115206,0.399382 -0.08449,0.184331 -0.230413,0.34562 -0.138248,0.153609 -0.322579,0.253455 -0.17665,0.09984 -0.384022,0.138248 -0.199691,0.04608 -0.407063,0.04608 z m 0,-0.53763 q 0.130567,0 0.261135,-0.03072 0.130567,-0.03072 0.238093,-0.09985 0.107527,-0.0768 0.184331,-0.184331 0.08449,-0.107526 0.130567,-0.230413 0.04608,-0.122887 0.06144,-0.253454 0.01536,-0.130568 0.01536,-0.261135 v -0.921653 q 0,-0.130567 -0.01536,-0.261135 -0.01536,-0.130567 -0.06144,-0.253454 -0.04608,-0.122888 -0.130567,-0.230414 -0.0768,-0.107526 -0.184331,-0.17665 -0.107526,-0.0768 -0.238093,-0.107526 -0.130568,-0.03072 -0.261135,-0.03072 -0.130568,0 -0.261135,0.03072 -0.130568,0.03072 -0.238094,0.107526 -0.107526,0.06912 -0.192011,0.17665 -0.0768,0.107526 -0.122887,0.230414 -0.04608,0.122887 -0.06144,0.253454 -0.01536,0.130568 -0.01536,0.261135 v 0.921653 q 0,0.130567 0.01536,0.261135 0.01536,0.130567 0.06144,0.253454 0.04608,0.122887 0.122887,0.230413 0.08449,0.107527 0.192011,0.184331 0.107526,0.06912 0.238094,0.09985 0.130567,0.03072 0.261135,0.03072 z m 2.872484,0.476187 v -3.993829 h 0.599074 v 0.829488 q 0.05376,-0.16897 0.130568,-0.330259 0.08449,-0.16129 0.207372,-0.291857 0.122887,-0.130568 0.291856,-0.199692 0.16897,-0.06912 0.34562,-0.06912 0.145928,0 0.284176,0.0384 0.145929,0.03072 0.261135,0.115206 0.115207,0.07681 0.192011,0.199692 0.07681,0.122887 0.122887,0.261135 0.04608,0.130567 0.06144,0.276496 0.01536,0.138247 0.01536,0.284176 h -0.599075 q 0,-0.115207 -0.02304,-0.222733 -0.01536,-0.115207 -0.0768,-0.215052 -0.05376,-0.09985 -0.16129,-0.145929 -0.09985,-0.05376 -0.215052,-0.05376 -0.153609,0 -0.299537,0.06912 -0.138248,0.06144 -0.238094,0.17665 -0.09216,0.115207 -0.153608,0.261135 -0.06144,0.138248 -0.09217,0.291857 -0.03072,0.145928 -0.04608,0.299537 -0.0077,0.153609 -0.0077,0.299537 v 2.119802 z m 5.314866,0.06144 q -0.16897,0 -0.34562,-0.04608 -0.16897,-0.04608 -0.314898,-0.145929 -0.138248,-0.09984 -0.238094,-0.245774 -0.09216,-0.145928 -0.153609,-0.307217 -0.05376,-0.16897 -0.0768,-0.33794 -0.02304,-0.17665 -0.02304,-0.3533 v -2.081399 h -0.737322 v -0.537631 h 0.737322 v -1.651295 h 0.599074 v 1.651295 h 1.351758 v 0.537631 h -1.351758 v 2.081399 q 0,0.09985 0.0077,0.199691 0.0077,0.09985 0.03072,0.199692 0.02304,0.09216 0.06144,0.18433 0.0384,0.08449 0.09985,0.16129 0.06912,0.0768 0.161289,0.115206 0.09216,0.0384 0.192011,0.0384 0.09985,0 0.18433,-0.0384 0.09217,-0.0384 0.153609,-0.107526 0.06912,-0.06912 0.107526,-0.153609 0.04608,-0.09216 0.06912,-0.18433 0.02304,-0.09217 0.03072,-0.184331 0.01536,-0.09984 0.01536,-0.192011 v -0.04608 h 0.599074 v 0.06912 q 0,0.168969 -0.03072,0.337939 -0.03072,0.16897 -0.09217,0.330259 -0.05376,0.153609 -0.153609,0.291857 -0.09985,0.138247 -0.238093,0.238093 -0.138248,0.09217 -0.307218,0.130568 -0.16897,0.04608 -0.337939,0.04608 z m 6.873993,-0.06144 v -5.107493 h -1.175108 v -0.537631 h 2.949289 v 0.537631 h -1.175107 v 5.107493 z m 4.132078,0.06144 q -0.16897,0 -0.33794,-0.02304 -0.161289,-0.01536 -0.322578,-0.06144 -0.161289,-0.05376 -0.307218,-0.138247 -0.138248,-0.09217 -0.245774,-0.215053 -0.107526,-0.130567 -0.16897,-0.291856 -0.05376,-0.16129 -0.05376,-0.330259 v -0.0384 h 0.599075 v 0.02304 q 0,0.138248 0.08449,0.253454 0.08448,0.115207 0.207371,0.184331 0.130568,0.06144 0.268816,0.08448 0.138248,0.01536 0.276496,0.01536 0.138248,0 0.276496,-0.02304 0.145928,-0.02304 0.268815,-0.08449 0.122887,-0.06144 0.207372,-0.17665 0.09216,-0.122887 0.09216,-0.261135 0,-0.138248 -0.0768,-0.245774 -0.0768,-0.115206 -0.192011,-0.18433 -0.107526,-0.07681 -0.230414,-0.122887 -0.122887,-0.04608 -0.253454,-0.08449 -0.122887,-0.0384 -0.253455,-0.07681 -0.122887,-0.04608 -0.245774,-0.09216 -0.122887,-0.05376 -0.238093,-0.115207 -0.115207,-0.06144 -0.222733,-0.138247 -0.107526,-0.08449 -0.199691,-0.176651 -0.08449,-0.09984 -0.153609,-0.207371 -0.06912,-0.115207 -0.107526,-0.245775 -0.03072,-0.130567 -0.03072,-0.261134 0,-0.16129 0.04608,-0.322579 0.05376,-0.161289 0.153609,-0.291857 0.09985,-0.130567 0.238094,-0.222732 0.138248,-0.09217 0.291857,-0.145929 0.153608,-0.06144 0.314898,-0.0768 0.168969,-0.02304 0.330259,-0.02304 0.161289,0 0.322578,0.02304 0.161289,0.01536 0.314898,0.06912 0.153609,0.05376 0.291857,0.145928 0.138248,0.08448 0.238093,0.215052 0.09985,0.122888 0.153609,0.284177 0.05376,0.153609 0.05376,0.314898 v 0.04608 h -0.599074 v -0.02304 q 0,-0.130567 -0.0768,-0.245774 -0.06912,-0.115207 -0.184331,-0.17665 -0.115207,-0.06912 -0.253454,-0.09216 -0.130568,-0.02304 -0.261135,-0.02304 -0.130568,0 -0.268816,0.02304 -0.130567,0.02304 -0.245774,0.09216 -0.115207,0.06144 -0.192011,0.18433 -0.0768,0.115207 -0.0768,0.245775 0,0.130567 0.0768,0.245774 0.0768,0.115206 0.184331,0.192011 0.107526,0.06912 0.230413,0.115206 0.130567,0.04608 0.253454,0.08449 0.130568,0.0384 0.253455,0.08449 0.122887,0.0384 0.245774,0.09216 0.122887,0.04608 0.238094,0.107526 0.122887,0.06144 0.222732,0.145929 0.107527,0.0768 0.199692,0.17665 0.09216,0.09217 0.161289,0.207372 0.06912,0.107526 0.09985,0.238093 0.0384,0.130568 0.0384,0.261135 0,0.16897 -0.06144,0.330259 -0.05376,0.161289 -0.161289,0.291857 -0.09985,0.130567 -0.245774,0.222733 -0.145928,0.09216 -0.307217,0.145928 -0.153609,0.05376 -0.322579,0.06912 -0.16897,0.02304 -0.337939,0.02304 z m 3.847898,0 q -0.207372,0 -0.414744,-0.04608 -0.199691,-0.0384 -0.384022,-0.138248 -0.17665,-0.09985 -0.322579,-0.253455 -0.138247,-0.161289 -0.222732,-0.34562 -0.08449,-0.192011 -0.115207,-0.399382 -0.03072,-0.207372 -0.03072,-0.414744 v -0.921653 q 0,-0.207372 0.03072,-0.414744 0.03072,-0.207372 0.115207,-0.391702 0.08449,-0.192011 0.222732,-0.34562 0.145929,-0.161289 0.322579,-0.261135 0.184331,-0.09985 0.384022,-0.138248 0.207372,-0.04608 0.414744,-0.04608 0.207372,0 0.407063,0.04608 0.207372,0.0384 0.384022,0.138248 0.184331,0.09985 0.322578,0.261135 0.145929,0.153609 0.230414,0.34562 0.08449,0.18433 0.115206,0.391702 0.03072,0.207372 0.03072,0.414744 v 0.921653 q 0,0.207372 -0.03072,0.414744 -0.03072,0.207371 -0.115206,0.399382 -0.08449,0.184331 -0.230414,0.34562 -0.138247,0.153609 -0.322578,0.253455 -0.17665,0.09984 -0.384022,0.138248 -0.199691,0.04608 -0.407063,0.04608 z m 0,-0.53763 q 0.130567,0 0.261135,-0.03072 0.130567,-0.03072 0.238093,-0.09985 0.107526,-0.0768 0.184331,-0.184331 0.08449,-0.107526 0.130567,-0.230413 0.04608,-0.122887 0.06144,-0.253454 0.01536,-0.130568 0.01536,-0.261135 v -0.921653 q 0,-0.130567 -0.01536,-0.261135 -0.01536,-0.130567 -0.06144,-0.253454 -0.04608,-0.122888 -0.130567,-0.230414 -0.0768,-0.107526 -0.184331,-0.17665 -0.107526,-0.0768 -0.238093,-0.107526 -0.130568,-0.03072 -0.261135,-0.03072 -0.130568,0 -0.261135,0.03072 -0.130568,0.03072 -0.238094,0.107526 -0.107526,0.06912 -0.192011,0.17665 -0.0768,0.107526 -0.122887,0.230414 -0.04608,0.122887 -0.06144,0.253454 -0.01536,0.130568 -0.01536,0.261135 v 0.921653 q 0,0.130567 0.01536,0.261135 0.01536,0.130567 0.06144,0.253454 0.04608,0.122887 0.122887,0.230413 0.08449,0.107527 0.192011,0.184331 0.107526,0.06912 0.238094,0.09985 0.130567,0.03072 0.261135,0.03072 z m 3.579086,0.53763 q -0.192011,0 -0.384022,-0.05376 -0.18433,-0.05376 -0.330259,-0.168969 -0.145928,-0.115207 -0.253454,-0.276496 -0.09985,-0.16897 -0.16129,-0.34562 -0.05376,-0.184331 -0.0768,-0.368661 -0.02304,-0.192011 -0.02304,-0.384022 v -0.921653 q 0,-0.192011 0.02304,-0.376342 0.02304,-0.192011 0.0768,-0.368661 0.06144,-0.18433 0.16129,-0.345619 0.107526,-0.16897 0.253454,-0.284177 0.145929,-0.115206 0.330259,-0.168969 0.192011,-0.05376 0.384022,-0.05376 0.17665,0 0.3533,0.04608 0.176651,0.04608 0.322579,0.153609 0.145928,0.107526 0.245774,0.253454 0.107526,0.145929 0.16897,0.314898 v -2.357895 h 0.599074 v 5.645124 h -0.599074 v -0.706601 q -0.06144,0.16897 -0.16897,0.314898 -0.09985,0.145929 -0.245774,0.253455 -0.145928,0.107526 -0.322579,0.153609 -0.17665,0.04608 -0.3533,0.04608 z m 0.230413,-0.53763 q 0.130568,0 0.253455,-0.03072 0.130567,-0.03072 0.230413,-0.107526 0.107526,-0.07681 0.184331,-0.184331 0.0768,-0.107526 0.115206,-0.230413 0.04608,-0.122887 0.06144,-0.245774 0.01536,-0.130568 0.01536,-0.261135 v -0.921653 q 0,-0.130567 -0.01536,-0.253455 -0.01536,-0.130567 -0.06144,-0.253454 -0.0384,-0.122887 -0.115206,-0.230413 -0.0768,-0.107526 -0.184331,-0.184331 -0.09985,-0.0768 -0.230413,-0.107526 -0.122887,-0.03072 -0.253455,-0.03072 -0.130567,0 -0.261135,0.03072 -0.122887,0.03072 -0.230413,0.107526 -0.09985,0.07681 -0.17665,0.184331 -0.0768,0.107526 -0.122887,0.230413 -0.0384,0.122887 -0.05376,0.253454 -0.01536,0.122888 -0.01536,0.253455 v 0.921653 q 0,0.130567 0.01536,0.261135 0.01536,0.122887 0.05376,0.245774 0.04608,0.122887 0.122887,0.230413 0.0768,0.107526 0.17665,0.184331 0.107526,0.0768 0.230413,0.107526 0.130568,0.03072 0.261135,0.03072 z m 2.526867,0.476187 v -0.537631 h 1.098302 V 15.412754 H 84.38163 v -0.537631 h 1.589851 v 3.456198 h 0.990777 v 0.537631 z m 1.382479,-4.669708 q -0.09985,0 -0.192011,-0.02304 -0.09217,-0.03072 -0.16129,-0.09985 -0.06912,-0.06912 -0.09985,-0.161289 -0.02304,-0.09216 -0.02304,-0.192011 0,-0.09985 0.02304,-0.192011 0.03072,-0.09216 0.09985,-0.161289 0.06912,-0.06912 0.16129,-0.09985 0.09216,-0.03072 0.192011,-0.03072 0.09985,0 0.192011,0.03072 0.09216,0.03072 0.161289,0.09985 0.06912,0.06912 0.09985,0.161289 0.03072,0.09216 0.03072,0.192011 0,0.09985 -0.03072,0.192011 -0.03072,0.09216 -0.09985,0.161289 -0.06912,0.06912 -0.161289,0.09985 -0.09217,0.02304 -0.192011,0.02304 z m 2.373253,4.669708 v -3.993829 h 0.599075 v 0.69892 q 0.06144,-0.161289 0.161289,-0.307218 0.09985,-0.153608 0.238093,-0.253454 0.145929,-0.107526 0.314899,-0.153609 0.17665,-0.04608 0.345619,-0.04608 0.192011,0 0.376342,0.05376 0.18433,0.05376 0.322578,0.17665 0.145929,0.115206 0.245774,0.284176 0.09985,0.161289 0.153609,0.34562 0.06144,0.17665 0.0768,0.368661 0.02304,0.18433 0.02304,0.368661 v 2.457741 h -0.599074 v -2.457741 q 0,-0.130567 -0.01536,-0.253455 -0.01536,-0.130567 -0.05376,-0.245774 -0.0384,-0.122887 -0.115207,-0.230413 -0.06912,-0.107526 -0.16897,-0.18433 -0.09985,-0.07681 -0.222732,-0.107526 -0.122887,-0.0384 -0.253455,-0.0384 -0.130567,0 -0.253454,0.0384 -0.122887,0.03072 -0.222733,0.107526 -0.09985,0.0768 -0.17665,0.18433 -0.06912,0.107526 -0.107526,0.230413 -0.0384,0.115207 -0.05376,0.245774 -0.01536,0.122888 -0.01536,0.253455 v 2.457741 z m 5.253423,1.712738 q -0.16897,0 -0.33794,-0.02304 -0.168969,-0.01536 -0.330259,-0.07681 -0.153608,-0.05376 -0.299537,-0.153609 -0.138248,-0.09216 -0.245774,-0.222732 -0.09985,-0.130568 -0.153609,-0.291857 -0.05376,-0.161289 -0.06144,-0.330259 h 0.599074 q 0,0.138248 0.08449,0.253455 0.08449,0.122887 0.199691,0.192011 0.122887,0.06912 0.261135,0.09217 0.138248,0.02304 0.284177,0.02304 0.122887,0 0.245774,-0.0384 0.130567,-0.03072 0.230413,-0.107526 0.107526,-0.06912 0.17665,-0.17665 0.0768,-0.107527 0.115207,-0.230414 0.04608,-0.122887 0.06144,-0.253454 0.01536,-0.122887 0.01536,-0.253455 v -0.821807 q -0.06144,0.16897 -0.16897,0.314898 -0.09985,0.145929 -0.245774,0.253455 -0.145928,0.107526 -0.322578,0.153609 -0.17665,0.04608 -0.3533,0.04608 -0.192011,0 -0.384022,-0.05376 -0.184331,-0.05376 -0.330259,-0.168969 -0.145929,-0.115207 -0.253455,-0.276496 -0.09985,-0.16897 -0.161289,-0.34562 -0.05376,-0.184331 -0.07681,-0.368661 -0.02304,-0.192011 -0.02304,-0.384022 v -0.921653 q 0,-0.192011 0.02304,-0.376342 0.02304,-0.192011 0.07681,-0.368661 0.06144,-0.18433 0.161289,-0.345619 0.107526,-0.16897 0.253455,-0.284177 0.145928,-0.115206 0.330259,-0.168969 0.192011,-0.05376 0.384022,-0.05376 0.17665,0 0.3533,0.04608 0.17665,0.04608 0.322578,0.153609 0.145929,0.107526 0.245774,0.253454 0.107527,0.145929 0.16897,0.314898 v -0.7066 h 0.599074 v 4.109035 q 0,0.207372 -0.03072,0.407064 -0.03072,0.207372 -0.115207,0.391702 -0.0768,0.184331 -0.207372,0.34562 -0.130567,0.161289 -0.307217,0.261135 -0.176651,0.107526 -0.384022,0.145928 -0.199692,0.04608 -0.399383,0.04608 z m -0.01536,-2.188925 q 0.130567,0 0.253454,-0.03072 0.130568,-0.03072 0.230413,-0.107526 0.107527,-0.07681 0.184331,-0.184331 0.0768,-0.107526 0.115207,-0.230413 0.04608,-0.122887 0.06144,-0.245774 0.01536,-0.130568 0.01536,-0.261135 v -0.921653 q 0,-0.130567 -0.01536,-0.253455 -0.01536,-0.130567 -0.06144,-0.253454 -0.0384,-0.122887 -0.115207,-0.230413 -0.0768,-0.107526 -0.184331,-0.184331 -0.09985,-0.0768 -0.230413,-0.107526 -0.122887,-0.03072 -0.253454,-0.03072 -0.130568,0 -0.261135,0.03072 -0.122887,0.03072 -0.230413,0.107526 -0.09985,0.07681 -0.176651,0.184331 -0.0768,0.107526 -0.122887,0.230413 -0.0384,0.122887 -0.05376,0.253454 -0.01536,0.122888 -0.01536,0.253455 v 0.921653 q 0,0.130567 0.01536,0.261135 0.01536,0.122887 0.05376,0.245774 0.04608,0.122887 0.122887,0.230413 0.0768,0.107526 0.176651,0.184331 0.107526,0.0768 0.230413,0.107526 0.130567,0.03072 0.261135,0.03072 z m 3.870939,0.53763 q -0.122887,0 -0.238094,-0.0384 -0.115206,-0.03072 -0.207371,-0.115206 -0.08449,-0.09217 -0.122887,-0.207372 -0.03072,-0.115207 -0.03072,-0.238094 0,-0.122887 0.03072,-0.238094 0.0384,-0.115206 0.122887,-0.199691 0.09217,-0.09217 0.207371,-0.122887 0.115207,-0.0384 0.238094,-0.0384 0.122887,0 0.238094,0.0384 0.115206,0.03072 0.199691,0.122887 0.09216,0.08448 0.122887,0.199691 0.0384,0.115207 0.0384,0.238094 0,0.122887 -0.0384,0.238094 -0.03072,0.115206 -0.122887,0.207372 -0.08449,0.08448 -0.199691,0.115206 -0.115207,0.0384 -0.238094,0.0384 z m 0,-2.918567 q -0.122887,0 -0.238094,-0.03072 -0.115206,-0.0384 -0.207371,-0.122887 -0.08449,-0.09216 -0.122887,-0.207372 -0.03072,-0.115206 -0.03072,-0.238093 0,-0.122887 0.03072,-0.238094 0.0384,-0.115206 0.122887,-0.199691 0.09217,-0.09217 0.207371,-0.122887 0.115207,-0.0384 0.238094,-0.0384 0.122887,0 0.238094,0.0384 0.115206,0.03072 0.199691,0.122887 0.09216,0.08449 0.122887,0.199691 0.0384,0.115207 0.0384,0.238094 0,0.122887 -0.0384,0.238093 -0.03072,0.115207 -0.122887,0.207372 -0.08449,0.08449 -0.199691,0.122887 -0.115207,0.03072 -0.238094,0.03072 z"
       id="text1-2-5"
       style="font-size:7.68044px;font-family:'Iosevka Fixed';-inkscape-font-specification:'Iosevka Fixed';fill:#ffffff;stroke-width:13.4353;stroke-linejoin:round"
       aria-label="Support Tsoding:" /><image
       width="39.27586"
       height="39.27586"
       preserveAspectRatio="none"
       style="image-rendering:optimizeSpeed"
       xlink:href="BTC.png"
       id="image1"
       x="19.8237"
       y="37.612309" /><image
       width="47.767937"
       height="47.767937"
       preserveAspectRatio="none"
       style="image-rendering:optimizeSpeed"
       xlink:href="Monero.png"
       id="image1-6"
       x="71.419586"
       y="29.120232" /></g></svg>
